<svg viewBox="0 0 160 120" xmlns="http://www.w3.org/2000/svg" role="img" aria-label="Book depository preview">
  <rect width="160" height="120" fill="#F3F0FB"/>
  <rect x="0" y="0" width="160" height="14" fill="#128C4A"/>
  <circle cx="8" cy="7" r="2" fill="#fff" opacity="0.8"/>
  <circle cx="15" cy="7" r="2" fill="#fff" opacity="0.6"/>
  <circle cx="22" cy="7" r="2" fill="#fff" opacity="0.4"/>
  <rect x="118" y="4" width="32" height="6" rx="3" fill="#fff" opacity="0.5"/>
  <rect x="10" y="22" width="26" height="8" rx="4" fill="#128C4A"/>
  <rect x="40" y="22" width="26" height="8" rx="4" fill="#fff" stroke="#C9E4D6"/>
  <rect x="70" y="22" width="26" height="8" rx="4" fill="#fff" stroke="#C9E4D6"/>
  <rect x="10" y="38" width="20" height="30" rx="2" fill="#1F6FEB"/>
  <rect x="34" y="38" width="20" height="30" rx="2" fill="#D97757"/>
  <rect x="58" y="38" width="20" height="30" rx="2" fill="#128C4A"/>
  <rect x="82" y="38" width="20" height="30" rx="2" fill="#F2B84B"/>
  <rect x="106" y="38" width="20" height="30" rx="2" fill="#7C6FEB"/>
  <rect x="130" y="38" width="20" height="30" rx="2" fill="#1D4ED8"/>
  <rect x="13" y="42" width="14" height="2" rx="1" fill="#fff" opacity="0.7"/>
  <rect x="37" y="42" width="14" height="2" rx="1" fill="#fff" opacity="0.7"/>
  <rect x="61" y="42" width="14" height="2" rx="1" fill="#fff" opacity="0.7"/>
  <rect x="85" y="42" width="14" height="2" rx="1" fill="#fff" opacity="0.7"/>
  <rect x="109" y="42" width="14" height="2" rx="1" fill="#fff" opacity="0.7"/>
  <rect x="133" y="42" width="14" height="2" rx="1" fill="#fff" opacity="0.7"/>
  <rect x="10" y="74" width="20" height="30" rx="2" fill="#5B8DEF"/>
  <rect x="34" y="74" width="20" height="30" rx="2" fill="#5FBF87"/>
  <rect x="58" y="74" width="20" height="30" rx="2" fill="#E9967A"/>
  <rect x="82" y="74" width="20" height="30" rx="2" fill="#8C7BEF"/>
  <rect x="106" y="74" width="20" height="30" rx="2" fill="#4FA9D8"/>
  <rect x="130" y="74" width="20" height="30" rx="2" fill="#E0A93E"/>
</svg>
